<svg xmlns="http://www.w3.org/2000/svg" width="231.563" height="186.745" viewBox="0 0 231.563 186.745"><defs><style>.a{fill:#b0cba1;}</style></defs><g transform="translate(-7614.871 -1666.635)"><g transform="translate(7614.871 1666.635)"><path class="a" d="M7829.67,1853.379H7631.634a16.447,16.447,0,0,1-11.895-5.075,17.3,17.3,0,0,1-4.869-12.107v-152.38a17.3,17.3,0,0,1,4.869-12.108,16.446,16.446,0,0,1,11.895-5.074H7829.67a16.448,16.448,0,0,1,11.9,5.074,17.3,17.3,0,0,1,4.868,12.108V1836.2a17.3,17.3,0,0,1-4.868,12.107A16.448,16.448,0,0,1,7829.67,1853.379ZM7631.634,1674.1a9.521,9.521,0,0,0-9.293,9.712V1836.2a9.521,9.521,0,0,0,9.293,9.712H7829.67a9.521,9.521,0,0,0,9.294-9.712v-152.38a9.521,9.521,0,0,0-9.294-9.712Z" transform="translate(-7614.871 -1666.635)"/></g><g transform="translate(7630.518 1679.346)"><circle class="a" cx="8.686" cy="8.686" r="8.686" transform="translate(0 139.995)"/><g transform="translate(13.637 5.973)"><path class="a" d="M7785.5,1875.225a73,73,0,1,1,28.5-5.755A72.772,72.772,0,0,1,7785.5,1875.225Zm0-138.972a65.532,65.532,0,1,0,25.592,5.166A65.338,65.338,0,0,0,7785.5,1736.253Z" transform="translate(-7712.277 -1728.783)"/><g transform="translate(57.103 57.103)"><path class="a" d="M7918.339,1918.727a16.12,16.12,0,1,0,11.4,4.721A16.013,16.013,0,0,0,7918.339,1918.727Z" transform="translate(-7902.221 -1918.727)"/></g><path class="a" d="M7789.3,1741.207a69.486,69.486,0,1,0,69.486,69.486A69.486,69.486,0,0,0,7789.3,1741.207Zm-19.451,119.7a52,52,0,0,1-30.763-30.763l4.207-1.546a47.52,47.52,0,0,0,28.1,28.1Zm42.6-41.031a23.649,23.649,0,1,1,1.855-9.183A23.5,23.5,0,0,1,7812.45,1819.876Zm22.717-7.713a47.349,47.349,0,0,0-47.338-47.338l0-4.482a51.829,51.829,0,0,1,51.815,51.815Z" transform="translate(-7717.546 -1737.472)"/></g><circle class="a" cx="8.686" cy="8.686" r="8.686" transform="translate(163.751 34.262) rotate(-80.783)"/><rect class="a" width="5.211" height="104.229" transform="translate(171.11 0)"/><path class="a" d="M8176.277,2089.459l-8.649-4.993,6.67-11.555.689-6.623-.659-.38,9.361-16.213-4.606-2.445-9.268,16.053-.659-.38-5.391,3.908-9.988,17.3-.064,2.825,8.18,4.723,2.415-1.468,2.449-4.242,8.65,4.994Z" transform="translate(-8007.369 -1945.536)"/><rect class="a" width="17.372" height="10.423" transform="translate(165.03 4.496)"/></g><rect class="a" width="2.606" height="78.172" transform="translate(7824.831 1731.971)"/><g transform="translate(7818.317 1755.847)"><rect class="a" width="15.634" height="9.381" transform="translate(0 0)"/><rect class="a" width="15.634" height="1.563" transform="translate(0 3.909)"/></g></g></svg>