<svg xmlns="http://www.w3.org/2000/svg" width="26.509" height="26.509" viewBox="0 0 26.509 26.509"><defs><style>.a{fill:#a6c2cb;}</style></defs><g transform="translate(-1714.322 -2529)"><g transform="translate(1714.322 2529)"><path class="a" d="M125.867,182.012a1.605,1.605,0,0,1,2.355-2.182l3.833,4.089v-11.4a1.612,1.612,0,0,1,3.223,0v11.4l3.833-4.089a1.605,1.605,0,0,1,2.355,2.182q-3.311,3.531-6.622,7.063c-.026.028-.053.055-.082.081a1.613,1.613,0,0,1-2.273-.081l-6.622-7.063Z" transform="translate(-120.412 -170.91)"/><path class="a" d="M137.349,207.677a1.609,1.609,0,0,1,3.218,0v3.5a4.187,4.187,0,0,1-4.184,4.174H118.243a4.187,4.187,0,0,1-4.184-4.174v-3.5a1.609,1.609,0,0,1,3.218,0v3.5a.972.972,0,0,0,.965.964h18.141a.972.972,0,0,0,.966-.964v-3.5Z" transform="translate(-114.059 -188.845)"/></g></g></svg>