<svg xmlns="http://www.w3.org/2000/svg" width="216.677" height="194.872" viewBox="0 0 216.677 194.872"><defs><style>.a{fill:#92d0e3;fill-rule:evenodd;}</style></defs><g transform="translate(-65.93 -94.671)"><path class="a" d="M119.294,175.328c-27.648-13.216-20.577-47.7-28.918-66.244C86.739,101,78.313,96.409,65.93,97.144c16.575-5.8,27.444-.8,33.341,8.775,11.158,18.119,10.463,51.145,38.681,48.024l1.88-.452a19.387,19.387,0,0,1,1.758,9.529,14.188,14.188,0,0,1-7.043,11.2,17.57,17.57,0,0,1-6.36,2.382,16.294,16.294,0,0,1-8.893-1.272Z" transform="translate(0 0)"/><path class="a" d="M189.258,175.328c27.647-13.216,20.577-47.7,28.919-66.244,3.635-8.083,12.063-12.674,24.446-11.94-16.575-5.8-27.443-.8-33.341,8.775-11.158,18.119-10.463,51.145-38.681,48.024l-1.88-.452a19.388,19.388,0,0,0-1.758,9.529,14.188,14.188,0,0,0,7.043,11.2,17.573,17.573,0,0,0,6.359,2.382,16.3,16.3,0,0,0,8.894-1.272Z" transform="translate(39.986 0)"/><path class="a" d="M153.342,271.512c-7.287-5.982-5.63-17.735-8.347-30.89a56.736,56.736,0,0,0-8.57-19.569c-12.131-11.789-10.688-15-6.962-28.913l1.148-5.538c-4.509,2.782-6.471,3.867-10.98,6.648l-3.877.632c-10.12,1.1-19.649-5.612-29.558-9.3-3.825-.489-3.4-3.618-.436-5.615,12.741-5.477,11.782-10.749,19.77-13.379,5.426-1.786,12.342,1.639,17.979.278,7.934-1.918,14.449-7.967,15.184-16.318a22.528,22.528,0,0,0-2.137-11.326c10.747-9.984,22.595-7.913,30.779-4.372,8.186-3.54,20.034-5.612,30.781,4.372a22.56,22.56,0,0,0-2.139,11.326c.737,8.351,7.251,14.4,15.186,16.318,5.636,1.361,12.554-2.063,17.978-.278,7.989,2.63,7.03,7.9,19.77,13.379,2.967,2,3.391,5.126-.434,5.615-9.91,3.684-19.438,10.4-29.558,9.3l-3.877-.632c-4.509-2.781-6.471-3.866-10.98-6.648q.572,2.768,1.146,5.538c3.727,13.916,5.171,17.124-6.961,28.913a56.763,56.763,0,0,0-8.57,19.569c-2.717,13.155-1.061,24.908-8.348,30.89,8.539-8.745-.431-11.281-6.712-8.338a8.4,8.4,0,0,0-4.827,6.18c-.72,3.78,2.986,5.3,6.5,4.851a51.1,51.1,0,0,1-8.768.967v.011l-.188-.006-.188.006v-.011a51.135,51.135,0,0,1-8.768-.967c3.517.447,7.223-1.071,6.5-4.851A8.447,8.447,0,0,0,159.653,263c-6.251-2.59-14.668-.043-6.311,8.516Z" transform="translate(6.931 14.359)"/></g></svg>