<svg xmlns="http://www.w3.org/2000/svg" width="233.909" height="178.061" viewBox="0 0 233.909 178.061"><defs><style>.a{fill:#88b4d0;}</style></defs><g transform="translate(-111.44 -337.594)"><g transform="translate(111.44 337.594)"><path class="a" d="M842.77,695.019c-1.165-6.031-5.338-11.577-9.919-11.686,4.762,1.926,6.066,5.942,6.129,10.526.8.216,1.649.455,2.481.717C841.915,694.717,842.349,694.869,842.77,695.019Z" transform="translate(-737.897 -637.826)"/><path class="a" d="M715.9,1391.5c-3.482.131-7.286-1.253-8.216,1.728,2.335-1.1,5.6,1.056,8.107.625,4.806-.831,9-3.59,13.174-5.251C724.381,1388.1,720.651,1391.326,715.9,1391.5Z" transform="translate(-629.207 -1250.222)"/><path class="a" d="M909.836,585.066c5.641,5,2.9,16.731,3.772,25.758q.567.111,1.156.2C915.748,600.166,919.613,586.972,909.836,585.066Z" transform="translate(-804.749 -552.493)"/><path class="a" d="M647.244,1230.989c-3.335,4.437-2.815,8.6-5.062,14.193-1.574,3.917-6.827,10.1-4.292,16.544-1.151-6.927,4.761-11.035,6.546-15.231,2.291-5.379,2.445-10.228,5.039-14.246.864-1.339,3.611-2.723,4.688-4.491.262-.43.505-.844.734-1.244q-1.831.517-3.783.88A32.515,32.515,0,0,0,647.244,1230.989Z" transform="translate(-568.007 -1109.512)"/><path class="a" d="M757.567,1348.881c-4-.882-10.187-1.684-11.511,1.027C749.437,1349.019,754.848,1350.547,757.567,1348.881Z" transform="translate(-662.526 -1215.048)"/><path class="a" d="M689.247,1449.378c-2.2-1.021-5.86-2.47-7.663.513,4.777-.911,5.955,3.573,11.02,2.94,5.191-.649,10.584-4.916,13.678-5.085C699.824,1448.1,692.991,1451.11,689.247,1449.378Z" transform="translate(-606.54 -1301.625)"/><path class="a" d="M1101.361,683.333c-4.653.111-8.885,5.83-9.972,11.97q1.9-.686,3.842-1.292C1095.267,689.364,1096.547,685.28,1101.361,683.333Z" transform="translate(-962.406 -637.826)"/><path class="a" d="M1151.916,1393.232c-.93-2.981-4.735-1.6-8.216-1.728-4.749-.177-8.479-3.405-13.064-2.9,4.174,1.662,8.368,4.421,13.174,5.251C1146.312,1394.288,1149.581,1392.132,1151.916,1393.232Z" transform="translate(-996.487 -1250.222)"/><path class="a" d="M558.8,1138.273c-.372-7.762,3.189-10.068,4.915-17.2-2.143,3.5-7.4,8.88-8.923,13.979-1.674,5.6,1.347,10.389-2.071,16-3.2,5.257-10.281,6.131-14.857,5.465-12.421-1.8-20.39-17.466-32.426-18.436L503.908,1131q-.528,3.528-1.057,7.055c-12.33.5-20.259,16.558-32.8,18.665-4.538.765-12.516-1.615-15.421-6.877-2.78-5.033.07-9.2-1.6-14.793-1.526-5.1-6.78-10.478-8.923-13.979,1.654,6.836,4.992,9.238,4.941,16.258-5.905-5.723-13.986-20.369-15.316-37.517a37.481,37.481,0,0,1-2.551-3.371,41.24,41.24,0,0,1-2.4-4.07c-.912,24.212,8.337,42.724,19.566,53.107.762,5.613.623,10.622,7.161,13.966a12.53,12.53,0,0,0,16.017,9.034c3.711,4.7,12.132,2.415,14.363-1.827,1.13.876,3.519,1.46,5.749-.794,0,0,5.258,4.5,11.948,4.421a23.373,23.373,0,0,0,12.6-4.421c2.23,2.253,4.2,1.586,5.749.794,2.231,4.241,10.652,6.522,14.363,1.827,10.173,2.607,14.9-3.3,16.017-9.034,3.815-.96,6.4-7.053,7.161-13.137,13.3-11.09,21.007-32.321,20.005-52.894a35.6,35.6,0,0,1-4.708,6.81C573.146,1118.538,563.184,1135.019,558.8,1138.273ZM531.524,1158.9c-.04.053-.082.106-.125.158l-.043.054-.036.036a5.19,5.19,0,0,1-.473.42q-.085.066-.172.13c-.009.007-.15.1-.175.121-.137.084-.279.163-.422.239-.168.089-.344.168-.52.244-.085.037-.171.07-.257.1.055-.023-.2.069-.212.073a8.4,8.4,0,0,1-1.156.271l-.143.021c.039-.007-.21.023-.232.025-.235.019-.472.023-.708.02a2.15,2.15,0,0,1-1.437-.534,1.531,1.531,0,0,1-.612-.9c-2.171.8-4.588,2.01-6.454.45a15.8,15.8,0,0,0,1.1-2.937c-2.39,2.2-9.195,4.715-15.809,5.1-6.3.362-12.2-2.27-14.834-4.557a15.185,15.185,0,0,0,1.223,2.248c-1.438,2.316-4.629.581-7.01-.3a1.472,1.472,0,0,1-.58.9,3.292,3.292,0,0,1-1.975.676,8,8,0,0,1-2.9-.367c-.256-.072-.44-.137-.533-.171-.235-.087-.463-.186-.688-.288a9.086,9.086,0,0,1-1.226-.676c-.247-.168-.465-.33-.661-.492,13.1-2.447,21.218-14.245,29.482-13.583,7.912-.635,15.668,10.155,27.8,13.221C531.664,1158.7,531.6,1158.8,531.524,1158.9Z" transform="translate(-386.953 -993.026)"/><path class="a" d="M341.883,374.068c.246-6.908-12.39-7.025-18-11.246-8.208-21.476-27.872-31.8-45.3-20.746-3.646,2.294-9.469,9.112-9.47,9.119-4.033-.331-5.979,1.351-7.9,3.053-10.971-.247-23.339,3-33.091,3-9.723-.02-21.647-3.243-32.544-3-1.924-1.7-3.87-3.384-7.9-3.053,0-.006-5.823-6.825-9.469-9.119-17.425-11.054-37.088-.731-45.3,20.746-5.612,4.221-18.248,4.338-18,11.246.338,9.6-4.925,11.262-3.066,13.29,2.719,2.973,10.814-5.623,14.726-9.4a15.531,15.531,0,0,0,7.076,3.563c1.326,2.8,1.1,7.979,5.91,6.669,1.087,2.374,3.113,3.848,5.045,5.424.056-.01.112-.021.169-.029a13.516,13.516,0,0,1,2-.128h.273c.282,0,.544,0,.755.006h.091a47.712,47.712,0,0,0,7.939-1.114c2.042-.4,4.148-.814,6.319-1.052,4.036-10.9,10.272-20.108,18.515-26.2a31.179,31.179,0,0,1,12.407-5.423c11.421-1.67,23.67,2.453,35.332,2.47,11.661-.017,23.91-4.14,35.332-2.47a31.181,31.181,0,0,1,12.407,5.423c8.113,6,13.791,15.16,18.1,25.753a84.393,84.393,0,0,0,16.111,1.914h.38l.5-.006h.1a4,4,0,0,1,1.526.327,14.01,14.01,0,0,0,4.387-4.891c4.811,1.31,4.583-3.874,5.91-6.669a15.532,15.532,0,0,0,7.076-3.563c3.913,3.773,12.007,12.369,14.726,9.4C346.809,385.33,341.545,383.666,341.883,374.068Zm-176.347,1.5c-2.929-7.01-5.423-14.456-14.672-15.167,6.811,3.646,10.7,10.279,10.908,20.464-5.741-2.106-9.194,2.429-14.129,3,3.559,2.019,7.2-1.822,11.488.017-1.913,5.664-.291,5.4-5.189,6.545-4.222.948-15.683-5.11-7.213-15.115-2.072-3.488-4.373-6.72-3.813-12.763-1.767,3.482-.793,8.463.246,11.3-2,2.045-2.686,5.506-3.043,9.326-2.357-.759-2.3-3.863-3.273-5.961-3.3.183-4.317-1.856-6.4-2.846,9.849-10.805,17.935-33.18,35.1-27.386,7.669,2.638,10.766,12.986,13.456,13.419C174.092,364.968,169.156,369.533,165.536,375.568Zm154.406,1.646c-.973,2.1-.916,5.2-3.273,5.961-.357-3.819-1.046-7.281-3.043-9.326,1.039-2.834,2.013-7.816.246-11.3.56,6.043-1.741,9.276-3.813,12.763,8.47,10.005-2.99,16.063-7.212,15.115-4.9-1.144-3.277-.881-5.189-6.545,4.289-1.839,7.929,2,11.488-.017-4.935-.575-8.388-5.109-14.129-3,.207-10.185,4.1-16.818,10.908-20.464-9.25.712-11.744,8.157-14.672,15.167-4.13-6.886-9.973-11.856-15.545-17.1,6.061,3.862,5.3-9.685,15.143-12.111,16.606-3.968,25.638,17.2,35.486,28.014C324.258,375.358,323.24,377.4,319.942,377.214Z" transform="translate(-111.44 -337.594)"/><path class="a" d="M1047.217,585.066c-9.76,1.9-5.926,15.053-4.934,25.9q.6-.073,1.162-.149C1044.314,601.793,1041.577,590.066,1047.217,585.066Z" transform="translate(-918.395 -552.493)"/><path class="a" d="M1220,1217.213c.383.766.815,1.584,1.311,2.462,1.02,1.8,3.823,3.151,4.688,4.49,3.674,5.689,3.3,9.33,5.4,14.251,1.786,4.2,7.339,8.3,6.187,15.229,2.535-6.451-2.189-11.287-3.763-15.2-2.247-5.592-2.256-11.1-5.592-15.539-1.09-1.452-4.085-3.552-5.248-4.872-.14-.033-.281-.065-.421-.1Q1221.251,1217.609,1220,1217.213Z" transform="translate(-1074.087 -1101.435)"/><path class="a" d="M1178,1349.908c-1.324-2.712-7.508-1.909-11.511-1.027C1169.206,1350.547,1174.617,1349.019,1178,1349.908Z" transform="translate(-1027.619 -1215.047)"/><path class="a" d="M1147.808,1449.378c-3.745,1.732-10.577-1.281-17.035-1.632,3.094.169,8.487,4.436,13.678,5.085,5.065.633,6.243-3.852,11.02-2.941C1153.668,1446.908,1150.012,1448.357,1147.808,1449.378Z" transform="translate(-996.606 -1301.625)"/></g><path class="a" d="M519.513,754.187c-.461-1.2-1.172-1.46-1.687-1.468h-.021q-.262,0-.522.006a89.4,89.4,0,0,1-18.121-2.183l-.034-.006c-.9-.13-1.783-.249-2.637-.354a133.008,133.008,0,0,0-14.129-.948h-.013l-.864,0-1.889.008a102.264,102.264,0,0,0-17.267,1.691,93.856,93.856,0,0,0-14.987,4.114c-.119.044-.232.092-.342.138a3.409,3.409,0,0,1-.431.163,5.382,5.382,0,0,1-.591.107c-.109.016-.218.031-.326.049a71.374,71.374,0,0,1-11.051,1c-.886.007-1.763-.007-2.606-.041a33.919,33.919,0,0,1-7.8-1.139c-.656-.182-1.308-.414-1.938-.64-.475-.169-.966-.345-1.461-.5-1.22-.384-2.489-.72-3.581-1.005a114.734,114.734,0,0,0-24.12-3.371c-1.677-.07-3.437-.1-5.23-.085a119.118,119.118,0,0,0-12.388.739c-1.336.153-2.718.31-4.068.476-.678.083-1.344.168-1.979.252-2.229.213-4.444.649-6.587,1.071a49.285,49.285,0,0,1-8.408,1.161h-.067c-.277,0-.657-.008-1.044-.005a11.211,11.211,0,0,0-1.64.1c-1.09.15-2.387,1.115-2.4,4.842a24.225,24.225,0,0,0,1,6.562c.731,2.467,1.569,3.783,2.489,3.91a4.049,4.049,0,0,1,3.462,3.211,11.662,11.662,0,0,1,.251,1.617c.018.164.037.331.057.5,1.107,9.214,3.71,16.922,7.738,22.91a31.627,31.627,0,0,0,10.561,9.97,33.754,33.754,0,0,0,16.283,4.2h.021l.749,0,1.5-.006h.019a42.509,42.509,0,0,0,13.524-2.479,31.719,31.719,0,0,0,5.56-2.719c.037-.285.086-.578.148-.882a12.249,12.249,0,0,1,2.256-4.867,17.067,17.067,0,0,1,4.129-3.887,20.5,20.5,0,0,1,4.207-2.181c.134-.263.267-.529.4-.8a59.825,59.825,0,0,0,4.03-11.8c.326-1.335.615-2.742.9-4.1.159-.773.323-1.572.492-2.349a10.157,10.157,0,0,1,2.4-4.956,5.076,5.076,0,0,1,2.1-1.388,3.831,3.831,0,0,1,1.117-.168,4.184,4.184,0,0,1,1.712.344,6.459,6.459,0,0,1,3.228,3.933,19.348,19.348,0,0,1,.8,4.109c.1.817.205,1.661.358,2.465a43.455,43.455,0,0,0,5.387,14.418,20.658,20.658,0,0,1,5.05,2.482,17.078,17.078,0,0,1,4.13,3.887,12.247,12.247,0,0,1,2.257,4.867c.016.078.03.154.044.23a35.965,35.965,0,0,0,9.42,3.739,57.158,57.158,0,0,0,14.2,1.438h.138a32.956,32.956,0,0,0,7.13-.89,30.288,30.288,0,0,0,5.986-2.057c6.869-3.194,12.041-8.8,15.372-16.654a47.143,47.143,0,0,0,3.432-16.4,17.55,17.55,0,0,1,.363-3.4c.454-1.749,1.687-2.672,4-2.992a1.135,1.135,0,0,0,.83-.591c.713-1.106,1.2-4.041,1.406-6.219C520.046,759.873,520.286,756.193,519.513,754.187Zm-134.134,4.084a41.251,41.251,0,0,0-9.625,6.493c-3.3,3.061-5.419,6.183-6.3,9.281a48.872,48.872,0,0,0-2.354,13.826c-.009,1.278.031,2.52.1,3.736q-.431-.968-.812-2a43.823,43.823,0,0,1-2.43-11.313c-.058-.666-.134-1.325-.206-1.962a36.08,36.08,0,0,1-.314-4.439,20.332,20.332,0,0,1,.979-5.753,8.707,8.707,0,0,1,2.62-3.862,17.172,17.172,0,0,1,4-2.7c3.453-1.753,8.077-2.893,13.743-3.387.837-.072,1.678-.114,2.568-.159l.708-.035c.621-.032,1.294-.049,2.181-.056l.41,0A56.78,56.78,0,0,0,385.379,758.271Zm92.208-2.378a67.329,67.329,0,0,0-6.654,1.659c-8.352,2.7-14.107,7.469-17.594,14.589-2.322,4.749-3.421,10.275-3.357,16.9,0,.086,0,.172.005.258a39.925,39.925,0,0,1-2.895-12.479c-.043-.495-.076-1-.106-1.651-.009-.211-.012-.423-.016-.649,0-.35-.01-.713-.042-1.083-.016-.191-.037-.385-.058-.572a9.921,9.921,0,0,1-.078-1,15.375,15.375,0,0,1,1.4-7.03,11.628,11.628,0,0,1,7.321-6.07,28,28,0,0,1,2.769-.69,126.709,126.709,0,0,1,18.6-2.483c.571-.034,1.145-.047,1.752-.06.277-.006.558-.012.843-.02C478.842,755.634,478.214,755.761,477.586,755.893Z" transform="translate(-206.538 -357.461)"/><g transform="translate(208.102 437.575)"><path class="a" d="M883.674,1118.52c-.62-3.886-5.1-.834-8.487-1.228-7.343-.85-3.784-14.051,2-8.743-9.934,6.513,11.878,11.344,9.394-.778-1.318-6.444-10.525-12.257-20.279-10.116-9.754-2.143-18.96,3.668-20.278,10.113-2.484,12.123,19.327,7.294,9.394.78,5.785-5.307,9.345,7.894,2,8.744-3.384.393-7.867-2.659-8.487,1.227-.336,2.1,4.211,5.873,5.8,6.991,3.926,2.754,9.009,3.6,10.19,8.019q.689-9.653,1.379-19.306.69,9.652,1.379,19.306c1.181-4.419,6.264-5.265,10.191-8.018C879.463,1124.393,884.01,1120.624,883.674,1118.52Zm-15.068-14.91c-.3.109-.6.224-.894.34l-.442.177-.418.177-.44.181-.424-.208-.18-.089-.2-.1-.412-.185c-.277-.123-.557-.237-.838-.35q-.843-.336-1.7-.608c-.568-.179-1.138-.337-1.709-.467s-1.142-.23-1.713-.3a16,16,0,0,0-3.394-.047c-.555.047-1.1.123-1.623.2s-1.026.176-1.506.246a10.826,10.826,0,0,1,2.737-1.475,15.727,15.727,0,0,1,3.769-.991,12.684,12.684,0,0,1,1.953-.1,12.512,12.512,0,0,1,1.93.195,14.142,14.142,0,0,1,1.9.477c.314.1.625.215.937.337.156.061.312.126.468.2l.063.028.081-.033q.243-.1.484-.185c.322-.118.645-.224.968-.326a18.043,18.043,0,0,1,1.953-.486,14.662,14.662,0,0,1,1.984-.241c.334-.017.668-.026,1-.023s.673.025,1.011.053a15.1,15.1,0,0,1,3.969.9,11.028,11.028,0,0,1,1.669.779,3.675,3.675,0,0,1,1.091.894,14.465,14.465,0,0,0-1.465-.4,12.793,12.793,0,0,0-1.665-.234,15.415,15.415,0,0,0-3.545.158q-.449.068-.9.163t-.9.2c-.6.152-1.2.319-1.8.51S869.2,1103.388,868.607,1103.61Z" transform="translate(-845.827 -1097.202)"/></g></g></svg>