<svg xmlns="http://www.w3.org/2000/svg" width="42.956" height="40" viewBox="0 0 42.956 40"><defs><style>.a{fill:#fff;}</style></defs><g transform="translate(-31 -46.9)"><path class="a" d="M69.029,69.392h-.335V63.26a16.169,16.169,0,1,0-32.337,0v6.133h-.335A5.006,5.006,0,0,0,31,74.367V81.9a5.03,5.03,0,0,0,5.023,5H41.1a1.458,1.458,0,0,0,1.473-1.426V70.789a1.434,1.434,0,0,0-1.473-1.4H39.228V63.26a13.3,13.3,0,1,1,26.6,0v6.133H63.949a1.434,1.434,0,0,0-1.473,1.4V85.474A1.458,1.458,0,0,0,63.949,86.9h5.08a4.949,4.949,0,0,0,4.927-5V74.367A4.925,4.925,0,0,0,69.029,69.392ZM39.706,84.03H36.023A2.158,2.158,0,0,1,33.87,81.9V74.367a2.134,2.134,0,0,1,2.153-2.1h3.683ZM71.086,81.9a2.077,2.077,0,0,1-2.057,2.133H65.346V72.262h3.683a2.059,2.059,0,0,1,2.057,2.1Z"/></g></svg>