<svg xmlns="http://www.w3.org/2000/svg" width="28.012" height="50.358" viewBox="0 0 28.012 50.358"><defs><style>.a{fill:#fff;}</style></defs><g transform="translate(-7.1)"><path class="a" d="M26.737,23.605V7.868A7.868,7.868,0,1,0,11,7.869V23.605a7.869,7.869,0,0,0,15.737,0Zm-12.59,0V7.868a4.721,4.721,0,1,1,9.442,0V23.605a4.721,4.721,0,1,1-9.442,0Z" transform="translate(2.237 0)"/><path class="a" d="M7.1,11v6.295A14.006,14.006,0,0,0,19.532,31.206a1.416,1.416,0,0,0,0,.252V40.9H13.237v3.147H28.974V40.9H22.68V31.458a1.416,1.416,0,0,0,0-.252A14.006,14.006,0,0,0,35.112,17.295V11H32.279v6.295a11.173,11.173,0,0,1-22.347,0V11Z" transform="translate(0 6.311)"/></g></svg>