<svg xmlns="http://www.w3.org/2000/svg" width="180.844" height="174.979" viewBox="0 0 180.844 174.979"><defs><style>.a{fill:#8cadde;fill-rule:evenodd;}</style></defs><path class="a" d="M198.759,333.02H326.82l-37.049-19,.495-.962-27.912-14.318.557-1.084-16.227-8.324-.768,1.5-5.9-1.876,3.827-7.459,4.961,3.694-.766,1.5L264.269,295l.555-1.085,27.912,14.317.495-.963L343.42,333.02h8.059a14.1,14.1,0,0,1,14.062,14.062v84.913a14.1,14.1,0,0,1-14.062,14.062H350.5v10.411H340.223l-3.313-10.411H212.618l-3.312,10.411H199.029V446.057h-.27A14.1,14.1,0,0,1,184.7,431.995V347.082a14.1,14.1,0,0,1,14.062-14.062Zm7.722,16.36v28.395h46.36V363.442h7.032v14.333h86.687V349.38Zm9.983,49.282a8.788,8.788,0,1,0,8.789,8.789,8.788,8.788,0,0,0-8.789-8.789Zm26.231,0a8.788,8.788,0,1,0,8.789,8.789,8.788,8.788,0,0,0-8.789-8.789Zm48.6-10.276a7.2,7.2,0,0,0-6.693,4.6H345.53a7.2,7.2,0,0,0-6.692-4.6Zm54.713,8.88H284.125v4.968h61.886v-4.968Zm0,9.248H284.125v4.968h61.886v-4.968Zm0,9.247H284.125v4.969h61.886v-4.969Zm-.558,9.247h-60.77a7.2,7.2,0,0,0,6.615,4.407h47.54A7.2,7.2,0,0,0,345.453,425.009Z" transform="translate(-184.697 -281.489)"/></svg>